<svg xmlns="http://www.w3.org/2000/svg" id="Reporting_icon" data-name="Reporting icon" version="1.1" viewBox="0 0 300 300" aria-hidden="true" style="fill: url(&quot;#CerosGradient_id6618c680a&quot;); width: 52px; height: 52px; display: block; transform: scale(1, 1); transition-property: none;" width="52" height="52">
  <defs><linearGradient class="cerosgradient" data-cerosgradient="true" id="CerosGradient_id6618c680a" gradientUnits="userSpaceOnUse" x1="50%" y1="100%" x2="50%" y2="0%"><stop offset="0%" stop-color="#29D5FF" style="transition-property: none;"></stop><stop offset="100%" stop-color="#29D5FF" style="transition-property: none;"></stop></linearGradient><linearGradient></linearGradient>
    <style>
      .cls-1 {
        fill: #29d5ff;
        stroke-width: 0px;
      }
    </style>
  </defs>
  <path class="cls-1" d="M150,3.6C69.3,3.6,3.6,69.3,3.6,150s65.7,146.4,146.4,146.4,146.4-65.7,146.4-146.4S230.7,3.6,150,3.6ZM150,289.4c-76.9,0-139.4-62.5-139.4-139.4S73.1,10.6,150,10.6s139.4,62.5,139.4,139.4-62.5,139.4-139.4,139.4ZM93,177.6h-26.1c-1.9,0-3.5,1.6-3.5,3.5v45.8c0,1.9,1.6,3.5,3.5,3.5h26.1c1.9,0,3.5-1.6,3.5-3.5v-45.8c0-1.9-1.6-3.5-3.5-3.5ZM89.5,223.5h-19.1v-38.8h19.1v38.8ZM139.7,137.6h-26.1c-1.9,0-3.5,1.6-3.5,3.5v85.8c0,1.9,1.6,3.5,3.5,3.5h26.1c1.9,0,3.5-1.6,3.5-3.5v-85.8c0-1.9-1.6-3.5-3.5-3.5ZM136.2,223.5h-19.1v-78.8h19.1v78.8ZM186.4,167.6h-26c-1.9,0-3.5,1.6-3.5,3.5v55.8c0,1.9,1.6,3.5,3.5,3.5h26c1.9,0,3.5-1.6,3.5-3.5v-55.8c0-1.9-1.6-3.5-3.5-3.5ZM182.9,223.5h-19v-48.8h19v48.8ZM233,127.6h-26.1c-1.9,0-3.5,1.6-3.5,3.5v95.8c0,1.9,1.6,3.5,3.5,3.5h26.1c1.9,0,3.5-1.6,3.5-3.5v-95.8c0-1.9-1.6-3.5-3.5-3.5ZM229.5,223.5h-19.1v-88.8h19.1v88.8ZM220,69.5c-9.7,0-17.5,7.9-17.5,17.5s.8,6,2.2,8.5l-20.6,17.7c-3-2.3-6.7-3.7-10.8-3.7s-9.4,2-12.6,5.3l-17.8-11.4c.8-2,1.2-4.1,1.2-6.3,0-9.7-7.9-17.5-17.5-17.5s-17.5,7.9-17.5,17.5.7,5.7,2,8.1l-20,16.3c-3-2.5-6.9-4-11.1-4-9.7,0-17.5,7.9-17.5,17.5s7.9,17.5,17.5,17.5,17.5-7.9,17.5-17.5-.7-5.7-2-8.1l20-16.3c3,2.5,6.9,4,11.1,4s9.4-2,12.6-5.3l17.8,11.4c-.8,2-1.2,4.1-1.2,6.3,0,9.7,7.9,17.5,17.5,17.5s17.5-7.9,17.5-17.5-.8-6-2.2-8.5l20.6-17.7c3,2.3,6.7,3.7,10.8,3.7,9.7,0,17.5-7.9,17.5-17.5s-7.9-17.5-17.5-17.5ZM80,145.5c-5.8,0-10.5-4.7-10.5-10.5s4.7-10.5,10.5-10.5,10.5,4.7,10.5,10.5-4.7,10.5-10.5,10.5ZM126.7,107.6c-5.8,0-10.5-4.7-10.5-10.5s4.7-10.5,10.5-10.5,10.5,4.7,10.5,10.5-4.7,10.5-10.5,10.5ZM173.3,137.6c-5.8,0-10.5-4.7-10.5-10.5s4.7-10.5,10.5-10.5,10.5,4.7,10.5,10.5-4.7,10.5-10.5,10.5ZM220,97.6c-5.8,0-10.5-4.7-10.5-10.5s4.7-10.5,10.5-10.5,10.5,4.7,10.5,10.5-4.7,10.5-10.5,10.5Z" style="fill: url(&quot;#CerosGradient_id6618c680a&quot;); transition-property: none;"></path>
</svg>