<svg class="svg-icon" style="width: 1em; height: 1em;vertical-align: middle;fill: currentColor;overflow: hidden;" viewBox="0 0 1024 1024" version="1.1" xmlns="http://www.w3.org/2000/svg"><path d="M788.127744 229.515264a18.51392 18.51392 0 0 0-18.497536 18.497536c0 1.155072 0.147456 2.269184 0.352256 3.366912l-72.37632 42.074112a18.530304 18.530304 0 0 0-17.178624-11.722752 18.432 18.432 0 0 0-12.9024 5.292032l-71.122944-41.664512a18.464768 18.464768 0 0 0-18.243584-15.843328 18.47296 18.47296 0 0 0-18.18624 15.556608l-51.89632 18.038784a18.39104 18.39104 0 0 0-14.770176-7.479296 18.497536 18.497536 0 0 0-18.489344 18.489344 18.497536 18.497536 0 0 0 36.98688 0c0-1.032192-0.155648-2.015232-0.311296-2.998272l49.266688-17.104896a18.456576 18.456576 0 0 0 17.399808 12.4928 18.51392 18.51392 0 0 0 17.178624-11.689984l67.62496 39.616512a18.382848 18.382848 0 0 0-1.024 5.791744 18.51392 18.51392 0 0 0 18.489344 18.497536 18.489344 18.489344 0 0 0 18.243584-15.843328l74.932224-43.556864c3.383296 4.34176 8.6016 7.184384 14.516224 7.184384a18.505728 18.505728 0 0 0 0.008192-36.995072zM493.32224 283.901952a9.78944 9.78944 0 1 1 0.016384-19.57888 9.78944 9.78944 0 0 1-0.016384 19.57888z m84.844544-26.099712a9.78944 9.78944 0 1 1 0.04096-19.57888 9.78944 9.78944 0 0 1-0.04096 19.57888z m102.268928 52.215808a9.797632 9.797632 0 0 1 0-19.57888c5.398528 0 9.78944 4.390912 9.78944 9.78944 0 5.390336-4.390912 9.78944-9.78944 9.78944z m107.692032-52.215808a9.78944 9.78944 0 1 1 0.032768-19.57888 9.78944 9.78944 0 0 1-0.032768 19.57888z" fill="#1296db" /><path d="M810.278912 111.32928c-93.814784-93.831168-245.88288-93.831168-339.697664 0-85.786624 85.77024-92.889088 220.127232-21.798912 314.269696l-58.359808 58.368-19.996672-19.996672L143.36 691.03616 230.555648 778.24l227.08224-227.090432-19.996672-19.955712 58.376192-58.384384c94.093312 71.0656 228.483072 64.004096 314.261504-21.79072 93.814784-93.7984 93.814784-245.891072 0-339.689472z m-30.851072 287.744V279.3472c-23.117824 5.103616-42.491904 33.91488-76.14464 52.4288-0.77824 0.425984-1.425408 0.671744-2.179072 1.056768v120.168448a182.165504 182.165504 0 0 1-27.205632 7.41376V338.116608c-21.225472-4.612096-35.127296-32.19456-72.86784-54.222848a54.4768 54.4768 0 0 0-5.439488-2.736128v176.635904a181.682176 181.682176 0 0 1-27.189248-9.158656V276.250624c-27.779072 0.69632-57.67168 15.704064-78.340096 28.54912v79.429632c-48.791552-71.02464-41.754624-168.894464 21.372928-232.046592 71.2704-71.262208 186.761216-71.204864 257.990656 0 67.657728 67.674112 70.909952 175.218688 10.002432 246.890496z" fill="#1296db" /></svg>